<svg xmlns="http://www.w3.org/2000/svg" width="200" height="200" viewBox="0 0 200 200"><defs><linearGradient id="mountainGrad" x1="0%" x2="0%" y1="0%" y2="100%"><stop offset="0%" style="stop-color:#2d5a4a;stop-opacity:1"/><stop offset="100%" style="stop-color:#1a3a2e;stop-opacity:1"/></linearGradient><linearGradient id="skyGrad" x1="0%" x2="0%" y1="0%" y2="100%"><stop offset="0%" style="stop-color:#6396b3;stop-opacity:1"/><stop offset="100%" style="stop-color:#4a7c9e;stop-opacity:1"/></linearGradient></defs><circle cx="100" cy="100" r="95" fill="url(#skyGrad)"/><path fill="url(#mountainGrad)" d="M 0 140 L 50 80 L 100 140 L 0 140 Z" opacity=".7"/><path fill="url(#mountainGrad)" d="M 60 140 L 120 60 L 180 140 L 60 140 Z"/><path fill="url(#mountainGrad)" d="M 130 140 L 170 100 L 200 140 L 130 140 Z" opacity=".8"/><path fill="#e8f1ef" d="M 120 60 L 110 75 L 130 75 Z"/><g transform="translate(70, 90)"><ellipse cx="30" cy="25" fill="#5a6c7d" opacity=".95" rx="28" ry="18"/><circle cx="8" cy="18" r="14" fill="#5a6c7d" opacity=".95"/><path fill="#5a6c7d" d="M 6 8 L 2 2 L 10 6 Z" opacity=".95"/><ellipse cx="2" cy="22" fill="#4a5c6d" opacity=".95" rx="6" ry="5"/><rect width="5" height="12" x="15" y="38" fill="#5a6c7d" opacity=".95" rx="2"/><rect width="5" height="12" x="35" y="38" fill="#5a6c7d" opacity=".95" rx="2"/><path fill="none" stroke="#5a6c7d" stroke-linecap="round" stroke-width="4" d="M 55 20 Q 62 15 65 25" opacity=".95"/><path stroke="#d97642" stroke-linecap="round" stroke-width="2" d="M 30 20 L 32 20 M 31 19 L 31 21"/></g><g opacity=".6"><path fill="#1a3a2e" d="M 25 130 L 20 145 L 30 145 Z"/><path fill="#1a3a2e" d="M 25 135 L 19 150 L 31 150 Z"/><path fill="#1a3a2e" d="M 175 120 L 170 135 L 180 135 Z"/><path fill="#1a3a2e" d="M 175 125 L 169 140 L 181 140 Z"/></g><circle cx="100" cy="100" r="95" fill="none" stroke="#2d5a4a" stroke-width="3"/></svg>